<?xml version="1.0" encoding="UTF-8" standalone="no"?>
<!DOCTYPE svg PUBLIC "-//W3C//DTD SVG 1.1//EN" "http://www.w3.org/Graphics/SVG/1.1/DTD/svg11.dtd">
<svg xmlns="http://www.w3.org/2000/svg" version="1.1" viewBox="0.00 0.00 512.00 512.00">
<path d="
  M 126.56 151.49
  A 0.30 0.29 -43.3 0 0 126.58 151.02
  Q 80.40 110.78 34.24 70.51
  C 26.77 64.00 22.05 58.67 25.50 49.01
  C 28.38 40.96 38.67 36.38 46.65 39.95
  Q 49.13 41.07 54.95 46.14
  Q 265.01 229.20 475.07 412.27
  Q 483.70 419.79 484.79 421.33
  C 491.71 431.04 485.09 445.39 472.70 446.29
  C 466.84 446.71 463.29 444.46 458.63 440.39
  Q 416.93 403.97 375.14 367.65
  Q 374.72 367.30 374.27 367.59
  C 331.04 395.47 280.61 411.51 229.76 404.01
  C 150.31 392.29 76.88 329.41 28.92 267.32
  C 19.87 255.60 25.91 248.32 34.32 237.90
  Q 67.59 196.72 109.32 164.10
  C 114.07 160.39 120.80 155.70 126.56 151.49
  Z
  M 245.04 330.64
  C 186.53 322.54 155.70 256.07 188.78 205.95
  A 0.66 0.65 -53.2 0 0 188.66 205.10
  L 152.34 173.45
  Q 151.98 173.14 151.58 173.40
  C 117.60 195.79 86.95 224.21 61.08 255.67
  A 0.53 0.52 45.5 0 0 61.08 256.34
  C 97.75 300.49 143.94 341.50 197.95 362.48
  Q 254.73 384.54 311.50 363.48
  Q 331.13 356.20 348.54 345.95
  Q 349.58 345.34 348.67 344.55
  L 310.19 311.05
  A 0.55 0.54 45.4 0 0 309.47 311.04
  C 291.54 326.55 268.52 333.89 245.04 330.64
  Z
  M 207.67 256.66
  C 212.36 293.40 254.74 312.10 284.93 289.73
  Q 285.38 289.40 284.96 289.03
  L 214.44 227.56
  Q 213.70 226.91 213.22 227.77
  C 208.33 236.53 206.38 246.63 207.67 256.66
  Z"
/>
<path d="
  M 450.64 255.31
  C 396.33 190.00 309.90 119.09 217.68 143.14
  C 212.94 144.37 204.67 147.66 199.10 146.93
  C 183.17 144.85 180.41 121.89 196.05 116.49
  Q 240.10 101.26 285.69 108.57
  C 363.59 121.06 436.03 183.76 482.69 244.28
  C 489.31 252.88 488.98 259.69 482.46 268.05
  Q 457.66 299.77 427.80 326.80
  C 414.47 338.88 394.45 324.42 402.27 308.50
  Q 403.58 305.83 408.05 301.68
  Q 430.35 280.92 450.64 256.77
  A 1.14 1.14 0.0 0 0 450.64 255.31
  Z"
/>
</svg>
