<?xml version="1.0" encoding="UTF-8" standalone="no"?>
<!DOCTYPE svg PUBLIC "-//W3C//DTD SVG 1.1//EN" "http://www.w3.org/Graphics/SVG/1.1/DTD/svg11.dtd">
<svg xmlns="http://www.w3.org/2000/svg" version="1.1" viewBox="0.00 0.00 512.00 512.00">
<path d="
  M 481.53 269.24
  C 423.93 343.06 327.62 421.00 226.32 403.36
  C 150.41 390.15 83.38 334.45 35.95 276.04
  C 26.99 265.01 18.94 257.58 29.73 243.68
  C 89.78 166.38 189.65 86.73 295.31 110.48
  C 370.75 127.44 438.13 185.91 483.81 245.70
  C 490.26 254.15 487.70 261.33 481.53 269.24
  Z
  M 213.94 367.74
  C 307.34 395.06 395.87 322.64 450.78 256.48
  A 0.76 0.76 0.0 0 0 450.78 255.50
  C 414.03 211.22 367.18 169.86 313.32 149.19
  Q 258.44 128.13 203.28 147.58
  C 147.20 167.36 98.67 210.35 61.21 255.51
  Q 60.83 255.97 61.21 256.44
  C 100.86 304.32 153.13 349.96 213.94 367.74
  Z"
/>
<path d="
  M 266.17 298.36
  C 292.56 292.85 309.06 266.68 303.72 240.32
  Q 301.97 231.71 297.71 225.30
  C 292.94 218.13 292.40 210.24 298.26 203.74
  C 303.25 198.21 312.61 197.17 318.72 201.39
  Q 321.94 203.62 325.35 209.38
  C 353.38 256.74 326.99 318.17 272.82 329.65
  C 204.56 344.12 150.46 269.95 186.67 209.44
  C 201.06 185.39 229.28 168.26 258.00 170.02
  Q 263.40 170.35 267.76 175.23
  C 275.16 183.52 272.38 196.16 262.20 200.57
  Q 259.95 201.54 254.66 201.86
  Q 232.65 203.21 219.13 218.97
  C 188.81 254.29 220.71 307.86 266.17 298.36
  Z"
/>
</svg>
