<svg viewBox="0 0 134 57" fill="none" xmlns="http://www.w3.org/2000/svg">
<g id="logo_prod 1" clip-path="url(#clip0_5_325)">
<g id="Group">
<path id="Vector" d="M30.3826 11.082C30.3826 10.5277 30.1831 9.99596 29.8279 9.60395C29.4726 9.21193 28.9909 8.9917 28.4885 8.9917H9.48649C8.98415 8.9917 8.50238 9.21193 8.14717 9.60395C7.79196 9.99596 7.59241 10.5277 7.59241 11.082V11.1593C7.59241 11.7137 7.79196 12.2454 8.14717 12.6374C8.50238 13.0294 8.98415 13.2496 9.48649 13.2496H28.4885C28.9909 13.2496 29.4726 13.0294 29.8279 12.6374C30.1831 12.2454 30.3826 11.7137 30.3826 11.1593V11.082Z" stroke="#D8B5D7" stroke-width="2"/>
<path id="Vector_2" d="M51.8125 11.9414C51.8125 11.1629 51.5323 10.4164 51.0335 9.86592C50.5347 9.31547 49.8582 9.00623 49.1529 9.00623C48.4475 9.00623 47.771 9.31547 47.2723 9.86592C46.7735 10.4164 46.4933 11.1629 46.4933 11.9414C46.4933 12.3269 46.5621 12.7085 46.6957 13.0646C46.8294 13.4208 47.0253 13.7443 47.2723 14.0169C47.5192 14.2894 47.8124 14.5056 48.1351 14.6531C48.4578 14.8006 48.8036 14.8766 49.1529 14.8766C49.5021 14.8766 49.848 14.8006 50.1707 14.6531C50.4933 14.5056 50.7865 14.2894 51.0335 14.0169C51.2805 13.7443 51.4764 13.4208 51.61 13.0646C51.7437 12.7085 51.8125 12.3269 51.8125 11.9414Z" stroke="#CCACDC" stroke-width="2"/>
<path id="Vector_3" d="M74.7645 11.1174C74.7645 10.8387 74.7147 10.5627 74.6181 10.3051C74.5214 10.0476 74.3797 9.81364 74.2012 9.61655C74.0226 9.41945 73.8105 9.26311 73.5772 9.15644C73.3439 9.04977 73.0938 8.99487 72.8412 8.99487H72.7887C72.5362 8.99487 72.2861 9.04977 72.0527 9.15644C71.8194 9.26311 71.6074 9.41945 71.4288 9.61655C71.2502 9.81364 71.1085 10.0476 71.0119 10.3051C70.9152 10.5627 70.8655 10.8387 70.8655 11.1174V43.1082C70.8655 43.3869 70.9152 43.6629 71.0119 43.9205C71.1085 44.178 71.2502 44.412 71.4288 44.6091C71.6074 44.8062 71.8194 44.9625 72.0527 45.0692C72.2861 45.1758 72.5362 45.2307 72.7887 45.2307H72.8412C73.0938 45.2307 73.3439 45.1758 73.5772 45.0692C73.8105 44.9625 74.0226 44.8062 74.2012 44.6091C74.3797 44.412 74.5214 44.178 74.6181 43.9205C74.7147 43.6629 74.7645 43.3869 74.7645 43.1082V11.1174Z" stroke="#C0A5E3" stroke-width="2"/>
<path id="Vector_4" d="M114.422 41.9558C114.429 41.9497 114.437 41.9457 114.445 41.9445C114.454 41.9432 114.463 41.9447 114.47 41.9488C114.478 41.9529 114.485 41.9593 114.489 41.9674C114.494 41.9755 114.496 41.9849 114.496 41.9945C114.498 42.8296 114.432 43.6535 114.893 44.3551C116.042 46.1076 118.398 45.1437 118.398 43.0227C118.399 32.5683 118.399 22.1134 118.397 11.6579C118.397 11.0582 118.356 10.6318 118.273 10.3786C117.671 8.53929 115.269 8.56021 114.645 10.3512C114.549 10.627 114.501 11.0995 114.501 11.7689C114.497 14.8736 114.496 17.9713 114.499 21.062C114.499 21.0763 114.495 21.0901 114.488 21.1019C114.481 21.1137 114.471 21.1229 114.459 21.1285C114.447 21.1341 114.434 21.1358 114.421 21.1335C114.408 21.1311 114.397 21.1247 114.387 21.1151C106.612 13.1609 94.5903 18.5646 93.4224 29.911C92.6685 37.2457 97.0108 44.0591 103.54 45.488C106.43 46.1204 109.373 45.6087 111.929 43.9866C112.773 43.4524 113.627 42.6864 114.422 41.9558Z" stroke="#B39BE8" stroke-width="2"/>
<path id="Vector_5" d="M20.9239 19.7266C20.9239 19.4515 20.8748 19.1791 20.7794 18.9249C20.684 18.6707 20.5442 18.4397 20.3679 18.2451C20.1916 18.0506 19.9823 17.8962 19.752 17.791C19.5216 17.6857 19.2748 17.6315 19.0255 17.6315H18.9584C18.7091 17.6315 18.4622 17.6857 18.2319 17.791C18.0016 17.8962 17.7923 18.0506 17.616 18.2451C17.4397 18.4397 17.2999 18.6707 17.2044 18.9249C17.109 19.1791 17.0599 19.4515 17.0599 19.7266V43.1308C17.0599 43.4059 17.109 43.6784 17.2044 43.9326C17.2999 44.1868 17.4397 44.4177 17.616 44.6123C17.7923 44.8068 18.0016 44.9612 18.2319 45.0665C18.4622 45.1718 18.7091 45.226 18.9584 45.226H19.0255C19.529 45.226 20.0118 45.0052 20.3679 44.6123C20.7239 44.2194 20.9239 43.6865 20.9239 43.1308V19.7266Z" stroke="#D8B5D7" stroke-width="2"/>
<path id="Vector_6" d="M51.098 20.4781C51.098 20.2062 51.0494 19.9369 50.9551 19.6856C50.8608 19.4343 50.7226 19.206 50.5483 19.0137C50.3741 18.8214 50.1672 18.6688 49.9395 18.5648C49.7118 18.4607 49.4678 18.4071 49.2214 18.4071H49.1543C48.9079 18.4071 48.6638 18.4607 48.4362 18.5648C48.2085 18.6688 48.0016 18.8214 47.8273 19.0137C47.6531 19.206 47.5149 19.4343 47.4206 19.6856C47.3262 19.9369 47.2777 20.2062 47.2777 20.4781V43.1549C47.2777 43.7042 47.4754 44.231 47.8273 44.6194C48.1793 45.0078 48.6566 45.226 49.1543 45.226H49.2214C49.7191 45.226 50.1964 45.0078 50.5483 44.6194C50.9002 44.231 51.098 43.7042 51.098 43.1549V20.4781Z" stroke="#CCACDC" stroke-width="2"/>
<path id="Vector_7" d="M105.876 41.4395C108.164 41.4351 110.357 40.3889 111.972 38.531C113.587 36.6731 114.492 34.1558 114.488 31.5328C114.483 28.9098 113.571 26.3959 111.95 24.5443C110.329 22.6927 108.133 21.6549 105.844 21.6593C103.556 21.6637 101.363 22.7099 99.7483 24.5678C98.1333 26.4257 97.2283 28.943 97.2324 31.566C97.2366 34.1891 98.1495 36.7029 99.7705 38.5545C101.391 40.4062 103.588 41.4439 105.876 41.4395Z" stroke="#B39BE8" stroke-width="2"/>
</g>
<path id="Vector_8" d="M28.4885 8.9917H9.48649C8.44042 8.9917 7.59241 9.92758 7.59241 11.082V11.1593C7.59241 12.3138 8.44042 13.2496 9.48649 13.2496H28.4885C29.5346 13.2496 30.3826 12.3138 30.3826 11.1593V11.082C30.3826 9.92758 29.5346 8.9917 28.4885 8.9917Z" fill="#B46DB1"/>
<path id="Vector_9" d="M49.1528 14.8766C50.6216 14.8766 51.8123 13.5624 51.8123 11.9414C51.8123 10.3203 50.6216 9.00623 49.1528 9.00623C47.6839 9.00623 46.4932 10.3203 46.4932 11.9414C46.4932 13.5624 47.6839 14.8766 49.1528 14.8766Z" fill="#9C5CBC"/>
<path id="Vector_10" d="M72.8412 8.995H72.7887C71.7265 8.995 70.8655 9.94528 70.8655 11.1175V43.1083C70.8655 44.2806 71.7265 45.2309 72.7887 45.2309H72.8412C73.9034 45.2309 74.7645 44.2806 74.7645 43.1083V11.1175C74.7645 9.94528 73.9034 8.995 72.8412 8.995Z" fill="#834DC9"/>
<path id="Vector_11" d="M114.422 41.9561C113.627 42.6867 112.773 43.4526 111.929 43.9869C109.373 45.609 106.43 46.1207 103.54 45.4883C97.0108 44.0593 92.6685 37.246 93.4224 29.9113C94.5903 18.5648 106.612 13.1611 114.387 21.1154C114.397 21.125 114.408 21.1313 114.421 21.1337C114.434 21.1361 114.447 21.1344 114.459 21.1288C114.471 21.1232 114.481 21.1139 114.488 21.1021C114.495 21.0903 114.499 21.0765 114.499 21.0623C114.496 17.9716 114.497 14.8739 114.501 11.7692C114.501 11.0998 114.549 10.6272 114.645 10.3515C115.269 8.56045 117.671 8.53953 118.273 10.3788C118.356 10.632 118.397 11.0585 118.397 11.6582C118.399 22.1136 118.399 32.5686 118.398 43.023C118.398 45.1439 116.042 46.1078 114.893 44.3554C114.432 43.6538 114.498 42.8299 114.496 41.9947C114.496 41.9851 114.494 41.9758 114.489 41.9677C114.485 41.9596 114.478 41.9531 114.47 41.9491C114.463 41.945 114.454 41.9435 114.445 41.9447C114.437 41.946 114.429 41.9499 114.422 41.9561ZM105.876 41.4395C108.164 41.4351 110.357 40.3889 111.972 38.531C113.587 36.6731 114.492 34.1558 114.488 31.5328C114.483 28.9098 113.571 26.3959 111.95 24.5443C110.329 22.6927 108.133 21.6549 105.844 21.6593C103.556 21.6637 101.363 22.7099 99.7483 24.5678C98.1333 26.4257 97.2283 28.943 97.2324 31.566C97.2366 34.1891 98.1495 36.7029 99.7705 38.5545C101.391 40.4062 103.587 41.4439 105.876 41.4395Z" fill="#693AD4"/>
<path id="Vector_12" d="M19.0253 17.6315H18.9583C17.9098 17.6315 17.0598 18.5695 17.0598 19.7266V43.1308C17.0598 44.2879 17.9098 45.226 18.9583 45.226H19.0253C20.0738 45.226 20.9238 44.2879 20.9238 43.1308V19.7266C20.9238 18.5695 20.0738 17.6315 19.0253 17.6315Z" fill="#B46DB1"/>
<path id="Vector_13" d="M49.2212 18.4071H49.1542C48.1178 18.4071 47.2776 19.3343 47.2776 20.4781V43.1549C47.2776 44.2987 48.1178 45.226 49.1542 45.226H49.2212C50.2577 45.226 51.0978 44.2987 51.0978 43.1549V20.4781C51.0978 19.3343 50.2577 18.4071 49.2212 18.4071Z" fill="#9C5CBC"/>
</g>
<defs>
<clipPath id="clip0_5_325">
<rect width="134" height="56" fill="white" transform="translate(0 0.5)"/>
</clipPath>
</defs>
</svg>
